<svg id="Layer_1" data-name="Layer 1" xmlns="http://www.w3.org/2000/svg" viewBox="0 0 363.65 44.17"><defs><style>.cls-1{fill:#fff;}</style></defs><title>logo</title><g id="_Группа_" data-name="&lt;Группа&gt;"><rect id="_Контур_" data-name="&lt;Контур&gt;" class="cls-1" x="39.12" y="1.02" width="11.29" height="5.96"/><path id="_Составной_контур_" data-name="&lt;Составной контур&gt;" class="cls-1" d="M-172.74-385.32c5.38,0,10.38.19,12.83,5.14a12.42,12.42,0,0,1,1.2,5.67c0,1.63-.19,6.15-4.33,8.89-3.27,2.21-8,2.26-11.68,2.26h-9.18v12.1H-196v-34.06ZM-183.89-371H-176a10.06,10.06,0,0,0,2.74-.19,3,3,0,0,0,2.36-3.12,3.66,3.66,0,0,0-.43-1.73c-.82-1.44-2.31-1.59-3.75-1.59h-8.84Z" transform="translate(196 386.34)"/><rect id="_Контур_2" data-name="&lt;Контур&gt;" class="cls-1" x="39.17" y="9.55" width="11.25" height="25.53"/><path id="_Составной_контур_2" data-name="&lt;Составной контур&gt;" class="cls-1" d="M-134.24-351.26c-2.93,0-7.35-.43-7.35-4.9s0-13.07,0-13.07h-2.18v-6.57h2.18v-8.61h11.34v8.61h4.18v6.57h-4.13v8.42c0,1.59.72,2.21,2.79,2.21h1.35v7.34Z" transform="translate(196 386.34)"/><path id="_Составной_контур_3" data-name="&lt;Составной контур&gt;" class="cls-1" d="M-77.62-351.26c-2.93,0-7.35-.43-7.35-4.9s0-13.07,0-13.07h-2.18v-6.57H-85v-8.61h11.34v8.61h4.18v6.57h-4.13v8.42c0,1.59.72,2.21,2.79,2.21h1.35v7.34Z" transform="translate(196 386.34)"/><path id="_Составной_контур_4" data-name="&lt;Составной контур&gt;" class="cls-1" d="M-112.52-361.73c.76,3.52,5.23,3.85,7.41,3.85,3.71,0,5.84-1.33,5.84-3.37,0-1.57-1.38-2.42-3.47-2.85l-8.22-1.62c-7.93-1.57-11.73-4.13-11.73-9.83a8.58,8.58,0,0,1,1.81-5.42c2.66-3.71,7.79-5.37,15.11-5.37A35.11,35.11,0,0,1-95.23-385a10.87,10.87,0,0,1,5.94,4.75,10.81,10.81,0,0,1,1.14,3.71l-11.73.66c-.76-2.95-3.9-3.09-5.94-3.09-1.14,0-5.27.09-5.27,2.66,0,1.95,2.09,2.52,6.94,3.51l4.23.86c4.56.9,12.35,2.23,12.35,9.69a10.62,10.62,0,0,1-2.14,6.32c-3.18,4.09-9,5.56-17.1,5.56-5.56,0-16.44-.71-17.53-11C-122.83-361.4-112.52-361.73-112.52-361.73Z" transform="translate(196 386.34)"/><path id="_Составной_контур_5" data-name="&lt;Составной контур&gt;" class="cls-1" d="M-49.84-377.53c14.47,0,19.08,7,19.08,13.36,0,9-8.31,13.46-18.84,13.46-8.94,0-18.84-3.36-18.84-13.36C-68.44-373.88-59-377.53-49.84-377.53Zm.14,6.68c-5,0-7,3.41-7,6.39,0,5.24,3.84,6.87,7.35,6.87,2.31,0,6.92-1.15,6.92-6.68C-42.44-368.35-45.18-370.85-49.69-370.85Z" transform="translate(196 386.34)"/><path id="_Составной_контур_6" data-name="&lt;Составной контур&gt;" class="cls-1" d="M-17.77-376.79v2.47c1.54-1.35,4.23-3.17,9.23-3.17,1.59,0,6.73.24,10.43,3.94,3.36,3.36,3.6,8.22,3.6,9.66A13.71,13.71,0,0,1,3-355.81c-1.59,2.16-5,5.33-11.49,5.33a14.63,14.63,0,0,1-9.28-3v11H-29v-34.29Zm6.17,7c-4.56,0-6.17,3.22-6.17,5.38,0,3.12,1.94,6.1,6,6.1a5.52,5.52,0,0,0,5.87-5.82A5.42,5.42,0,0,0-11.6-369.8Z" transform="translate(196 386.34)"/><path id="_Составной_контур_7" data-name="&lt;Составной контур&gt;" class="cls-1" d="M20.57-385.32v12.15h5.06c5,0,5.11-4.05,6.32-7.28a14.15,14.15,0,0,1,2.75-4.87H48.1a17.86,17.86,0,0,0-4.34,7.81c-.67,2.51-2.12,6.51-5.3,7.57,4.92,1.16,6.17,6.08,6.85,9.21a19.27,19.27,0,0,0,4.24,9.45H36.14a9.55,9.55,0,0,1-2.56-5.4c-.63-3.86-1.3-8.78-6.65-8.78H20.57v14.18H8.32v-34Z" transform="translate(196 386.34)"/><path id="_Составной_контур_8" data-name="&lt;Составной контур&gt;" class="cls-1" d="M73.17-351.27a10.53,10.53,0,0,1-.43-2.46,30.14,30.14,0,0,1-12.68,3.18c-8.29,0-11.24-4.15-11.24-8.1,0-7,6-8.92,23.44-8.92h.29v-.29c0-3-3.38-3.33-5.5-3.33s-5.88.34-6.22,2.31H49.88c.53-3.33,2-5.5,4.48-6.8s7.47-2,12.3-2c13.26,0,16.93,2.7,16.93,9.21V-355c0,2.27.48,2.85,1.4,3.71Zm-7.09-11.38c-3.66.19-5.74.77-5.74,2.8,0,1.06,1,2.56,4,2.56,1.78,0,5.35-.77,7.19-2.85A5.4,5.4,0,0,0,72.69-363Z" transform="translate(196 386.34)"/><path id="_Составной_контур_9" data-name="&lt;Составной контур&gt;" class="cls-1" d="M112.8-376.74c11.57,0,16.15,5.3,16.15,12.73,0,6.75-4.58,12.83-16.15,12.83v9H101.42v-9c-11.28,0-16.11-6-16.11-12.83,0-7.33,4.58-12.73,16.11-12.73v-8.49H112.8Zm-11,6.75c-2.8,0-5.88,1.59-5.88,6s3.13,6.08,5.88,6.08Zm10.61,12.06a5.67,5.67,0,0,0,5.93-6.08,5.67,5.67,0,0,0-5.93-6Z" transform="translate(196 386.34)"/><path id="_Составной_контур_10" data-name="&lt;Составной контур&gt;" class="cls-1" d="M142.29-362.37c.92,4.82,5.64,5.45,7.09,5.45a8,8,0,0,0,5.74-2.31l11.86.58c-2.31,4.77-8.2,8.2-18.13,8.2-8.44,0-18.32-3.23-18.32-13.65a12,12,0,0,1,5.16-10.08c3.13-2.22,6.75-3.28,13.16-3.28,5.45,0,11.24.87,15.19,5,2.41,2.56,3.62,5.55,3.62,10.13Zm13.41-4.44c-.63-1.74-2.22-4.1-6.51-4.1-1.11,0-5.21.1-6.51,4.1Z" transform="translate(196 386.34)"/></g></svg>